<svg xmlns="http://www.w3.org/2000/svg" fill="none" viewBox="0 0 18 18"><path fill="#0941AC" fill-rule="evenodd" d="M3 3.8182c-.373 0-.6818.3087-.6818.6818v9c0 .3731.3087.6818.6819.6818h12c.3731 0 .6818-.3087.6818-.6818v-9c0-.3731-.3087-.6818-.6818-.6818h-12ZM.682 4.5C.6819 3.2231 1.7232 2.1818 3 2.1818h12c1.2768 0 2.3181 1.0413 2.3181 2.3182v9c0 1.2769-1.0413 2.3182-2.3181 2.3182h-12c-1.2769 0-2.3182-1.0413-2.3182-2.3182v-9Z" clip-rule="evenodd"/><path fill="#0941AC" fill-rule="evenodd" d="M.8296 4.0308a.8182.8182 0 0 1 1.1395-.201l7.0308 4.9215 7.0308-4.9216a.8182.8182 0 0 1 .9384 1.3406l-7.5 5.25a.8182.8182 0 0 1-.9384 0l-7.5-5.25a.8182.8182 0 0 1-.201-1.1395Z" clip-rule="evenodd"/></svg>