<svg xmlns="http://www.w3.org/2000/svg" fill="none" viewBox="0 0 24 24"><path fill="#EB5757" stroke="#EB5757" stroke-linecap="round" stroke-linejoin="round" stroke-width="1.5" d="M21 16V8a1.9996 1.9996 0 0 0-1-1.73l-7-4a1.9999 1.9999 0 0 0-2 0l-7 4A2 2 0 0 0 3 8v8a1.9998 1.9998 0 0 0 1 1.73l7 4a2.0001 2.0001 0 0 0 2 0l7-4A2 2 0 0 0 21 16Z"/><path fill="#fff" fill-rule="evenodd" d="M15.9123 8.0875a.5833.5833 0 0 1 0 .825l-7 7a.5833.5833 0 1 1-.825-.825l7.0001-7a.5833.5833 0 0 1 .8249 0Z" clip-rule="evenodd"/><path fill="#fff" fill-rule="evenodd" d="M8.0874 8.0875a.5833.5833 0 0 1 .825 0l6.9999 7a.5834.5834 0 0 1-.8249.825l-7-7a.5833.5833 0 0 1 0-.825Z" clip-rule="evenodd"/></svg>