<svg xmlns="http://www.w3.org/2000/svg" fill="none" viewBox="0 0 232 32"><path fill="#fff" d="M11.588 18.403c2.458.469 3.629 1.875 3.629 4.454 0 1.758-.585 3.048-1.756 3.868-1.17.82-2.575 1.29-4.331 1.29H1.521V9.963h7.375c1.639 0 3.043.352 3.98 1.173 1.053.703 1.521 1.875 1.521 3.399 0 1.875-.936 3.282-2.809 3.868Zm-3.16-4.806H5.384v3.517h2.927c.585 0 1.053-.118 1.521-.47.351-.351.585-.703.585-1.289s-.234-.937-.585-1.29c-.35-.35-.82-.468-1.404-.468Zm.117 10.667c.82 0 1.404-.117 1.873-.47.468-.35.702-.82.702-1.406 0-1.29-.82-1.992-2.575-1.992h-3.16v3.868h3.16Zm17.791 4.102c-2.926 0-5.267-.82-7.023-2.578-1.873-1.759-2.81-3.986-2.81-6.799s.937-5.04 2.81-6.798c1.873-1.759 4.214-2.58 7.023-2.58 2.341 0 4.566.704 6.438 1.993l-2.107 3.517c-1.404-.938-2.809-1.407-4.33-1.407-1.64 0-2.927.47-3.863 1.407-1.054.938-1.522 2.227-1.522 3.868s.468 2.93 1.522 3.868c1.053.938 2.34 1.407 3.862 1.407 1.522 0 2.927-.469 4.331-1.407l2.107 3.517c-1.99 1.29-4.097 1.992-6.438 1.992Zm12.174-4.22h7.257v3.751H34.53V9.963h11.12v3.751h-7.14v2.813h6.438v3.634H38.51v3.985Zm58.879 3.751H91.77l-7.491-8.556v8.556h-3.98V9.963h3.98v7.971l6.438-7.97H96.1l-7.374 8.439 8.662 9.494Z"/><path fill="#fff" d="M98.325 12.19c1.756-1.758 4.097-2.578 6.789-2.578 2.692 0 4.916.82 6.789 2.579 1.756 1.758 2.692 3.985 2.692 6.798s-.936 5.04-2.692 6.799c-1.756 1.758-4.097 2.578-6.789 2.578-2.692 0-4.916-.82-6.789-2.578-1.756-1.759-2.692-3.986-2.692-6.799s.936-5.04 2.692-6.798Zm10.418 2.931c-.937-.938-2.224-1.407-3.629-1.407-1.404 0-2.692.47-3.629 1.407-.936.938-1.404 2.227-1.404 3.868s.468 2.813 1.404 3.868c.937.938 2.225 1.407 3.629 1.407 1.405 0 2.692-.469 3.629-1.407.936-.938 1.404-2.227 1.404-3.868 0-1.64-.468-2.93-1.404-3.868Zm22.473-5.158v17.934h-3.98V13.714h-6.437v9.73c0 1.64-.352 2.812-1.171 3.516-.702.703-1.873 1.172-3.512 1.172h-1.521V24.38h1.17c.703 0 1.054-.469 1.054-1.29V9.964h14.397Zm18.378 0v17.934h-3.98V13.714h-6.438v9.73c0 1.64-.351 2.812-1.17 3.516-.702.703-1.873 1.172-3.512 1.172h-1.521V24.38h1.17c.703 0 1.054-.469 1.054-1.29V9.964h14.397Zm7.141 14.183h7.257v3.751h-11.237V9.963h11.12v3.751h-7.14v2.813h6.438v3.634h-6.438v3.985Zm23.996.469h2.107v6.916h-3.746v-3.165h-10.535v3.165h-3.745v-6.916h2.106c.82-2.11 1.171-4.454 1.171-7.384V9.963h12.525v14.652h.117Zm-8.545-7.384c0 2.813-.351 5.274-1.171 7.267h5.736v-10.9h-4.565v3.633Zm39.68 10.666h-5.618l-6.906-8.908v8.908h-3.746V18.99l-7.023 8.908h-5.619l7.96-9.377-6.789-8.557h5.267l6.204 8.206V9.963h3.746v8.206l6.086-8.206h5.268l-6.789 8.557 7.959 9.377Zm1.405-17.934h3.98v11.37l8.545-11.37h3.395v17.934h-3.98v-11.37l-8.545 11.37h-3.395V9.963ZM68.125 27.897H57.473L48.46 9.963h10.535l9.13 17.934Z"/><path fill="url(#a)" d="M57.59 27.897h10.652L82.288 0H71.636L57.59 27.897Z"/><defs><linearGradient id="a" x1="56.789" x2="83.093" y1="27.136" y2=".87" gradientUnits="userSpaceOnUse"><stop offset=".071" stop-color="#E52421"/><stop offset=".174" stop-color="#DE2134"/><stop offset=".386" stop-color="#CD1967"/><stop offset=".682" stop-color="#B30CB6"/><stop offset=".933" stop-color="#9A00FF"/></linearGradient></defs></svg>
