<svg xmlns="http://www.w3.org/2000/svg" fill="none" viewBox="0 0 18 18"><g clip-path="url(#a)"><path stroke="#0941AC" stroke-linecap="round" stroke-linejoin="round" stroke-width="1.6364" d="M11.2876 3.75a3.7498 3.7498 0 0 1 2.9625 2.9625M11.2876.75a6.7502 6.7502 0 0 1 5.9625 5.955m-.75 5.985v2.25a1.5005 1.5005 0 0 1-1.635 1.5 14.843 14.843 0 0 1-6.4725-2.3025 14.6253 14.6253 0 0 1-4.5-4.5A14.8425 14.8425 0 0 1 1.59 3.135 1.5 1.5 0 0 1 3.0826 1.5h2.25a1.5 1.5 0 0 1 1.5 1.29c.095.72.271 1.427.525 2.1075A1.5 1.5 0 0 1 7.02 6.48l-.9525.9525a12.0001 12.0001 0 0 0 4.5 4.5l.9525-.9525a1.4999 1.4999 0 0 1 1.5825-.3375 9.6311 9.6311 0 0 0 2.1075.525 1.5003 1.5003 0 0 1 1.29 1.5225Z"/></g><defs><clipPath id="a"><path fill="#fff" d="M0 0h18v18H0z"/></clipPath></defs></svg>