<svg xmlns="http://www.w3.org/2000/svg" width="18" height="18" fill="none">
  <g clip-path="url(#a)">
    <path fill="#8ECFE1" d="M9 0C4.05 0 0 4.05 0 9s4.05 9 9 9 9-4.05 9-9-4.05-9-9-9Zm.9 15.3H8.1v-1.8h1.8v1.8Zm1.89-6.93-.81.81c-.72.63-1.08 1.17-1.08 2.52H8.1v-.45c0-.99.36-1.89 1.08-2.52l1.08-1.17c.36-.27.54-.72.54-1.26 0-.99-.81-1.8-1.8-1.8s-1.8.81-1.8 1.8H5.4c0-1.98 1.62-3.6 3.6-3.6s3.6 1.62 3.6 3.6c0 .81-.36 1.53-.81 2.07Z"/>
  </g>
  <defs>
    <clipPath id="a">
      <path fill="#fff" d="M0 0h18v18H0z"/>
    </clipPath>
  </defs>
</svg>
