<svg width="40" height="38" viewBox="0 0 40 38" fill="none" xmlns="http://www.w3.org/2000/svg">
<path d="M3 33.3739V22.4829C3 17.3213 4.23544 13.2437 6.70631 10.25C9.21199 7.25622 12.8487 5.29481 17.6164 4.36572V9.73379C14.0667 10.8349 11.6829 12.7275 10.4648 15.4115C9.8384 16.8224 9.5774 18.2848 9.6818 19.7989H17.8774V33.3739H3Z" fill="#266FFF"/>
<path d="M21.8774 33.3739V22.4829C21.8774 17.3213 23.1128 13.2437 25.5837 10.25C28.0893 7.25622 31.7261 5.29481 36.4938 4.36572V9.73379C32.9441 10.8349 30.5602 12.7275 29.3422 15.4115C28.7158 16.8224 28.4548 18.2848 28.5592 19.7989H36.7548V33.3739H21.8774Z" fill="#266FFF"/>
</svg>
