<svg xmlns="http://www.w3.org/2000/svg" fill="none" viewBox="0 0 18 18"><path fill="#0941AC" fill-rule="evenodd" d="M3 3.0682a.6818.6818 0 0 0-.6818.6818v7.5c0 .3766.3053.6818.6819.6818h12a.6818.6818 0 0 0 .6818-.6818v-7.5a.6818.6818 0 0 0-.6818-.6818h-12ZM.682 3.75C.6819 2.4697 1.7198 1.4318 3 1.4318h12c1.2803 0 2.3181 1.0379 2.3181 2.3182v7.5c0 1.2803-1.0378 2.3182-2.3181 2.3182h-12c-1.2803 0-2.3182-1.0379-2.3182-2.3182v-7.5ZM5.1819 15.75A.8182.8182 0 0 1 6 14.9318h6a.8182.8182 0 0 1 .8181.8182.8182.8182 0 0 1-.8181.8182h-6a.8182.8182 0 0 1-.8182-.8182Z" clip-rule="evenodd"/><path fill="#0941AC" fill-rule="evenodd" d="M9 11.9318a.8182.8182 0 0 1 .8183.8182v3a.8182.8182 0 1 1-1.6364 0v-3A.8182.8182 0 0 1 9 11.9318Z" clip-rule="evenodd"/></svg>