<svg width="8" height="5" viewBox="0 0 8 5" fill="none" xmlns="http://www.w3.org/2000/svg">
<path d="M7.92006 0.515422L7.51929 0.0859386C7.46589 0.028586 7.40437 0 7.33482 0C7.26545 0 7.20396 0.028586 7.15055 0.0859386L4.00004 3.46219L0.849671 0.086029C0.796241 0.0286764 0.734752 9.02221e-05 0.665289 9.02221e-05C0.595798 9.02221e-05 0.534309 0.0286764 0.480906 0.086029L0.0801884 0.515542C0.0266733 0.572774 0 0.638672 0 0.713147C0 0.787561 0.0267575 0.853459 0.0801884 0.910691L3.81566 4.91412C3.86906 4.97138 3.93058 5 4.00004 5C4.06951 5 4.13091 4.97138 4.18428 4.91412L7.92006 0.910691C7.97347 0.853429 8 0.787531 8 0.713147C8 0.638672 7.97347 0.572774 7.92006 0.515422Z" fill="#0941AC"/>
</svg>
